<svg width="1080" height="842" viewBox="0 0 1080 842" fill="none" xmlns="http://www.w3.org/2000/svg">
    <path d="M540.977 477.443C560.542 477.443 580.596 467.181 601.139 446.656L1026.68 25.9002C1008.42 8.6334 974.998 0 926.414 0H138.913C97.4997 0 68.8039 7.9819 52.8256 23.9457L480.813 446.656C501.031 467.181 521.086 477.443 540.977 477.443ZM12.2282 763.322L358.043 421.733L11.2495 80.1438C3.74983 94.1527 0 117.772 0 151.003V690.508C0 725.042 4.07607 749.313 12.2282 763.322ZM153.586 842H941.079C981.843 842 1010.38 834.181 1026.68 818.543L674.019 469.624L641.737 502.365C608.802 533.641 575.215 549.279 540.977 549.279C506.411 549.279 472.825 533.641 440.216 502.365L407.444 469.624L55.7606 818.055C74.3475 834.018 106.956 842 153.586 842ZM1068.26 762.833C1076.09 748.499 1080 724.39 1080 690.508V151.003C1080 118.099 1076.41 94.9677 1069.23 81.61L723.422 421.733L1068.26 762.833Z" fill="#1C1C1E"/>
</svg>
