<svg width="1080" height="878" viewBox="0 0 1080 878" fill="none" xmlns="http://www.w3.org/2000/svg">
    <path d="M339.647 877.725C747.215 877.725 970.097 540.074 970.097 247.275C970.097 237.685 969.902 228.137 969.472 218.634C1012.74 187.357 1050.34 148.326 1080 103.894C1040.3 121.542 997.573 133.421 952.754 138.778C998.501 111.346 1033.62 67.9521 1050.19 16.2216C1007.38 41.6016 959.969 60.048 909.489 70.007C869.055 26.9381 811.489 0 747.749 0C625.384 0 526.156 99.2319 526.156 221.549C526.156 238.937 528.1 255.85 531.902 272.073C347.743 262.806 184.444 174.635 75.1552 40.5646C56.1257 73.3099 45.153 111.347 45.153 151.934C45.153 228.808 84.2716 296.673 143.758 336.376C107.404 335.252 73.2543 325.273 43.4062 308.663C43.3735 309.592 43.3734 310.499 43.3734 311.492C43.3734 418.802 119.752 508.397 221.14 528.7C202.521 533.776 182.931 536.497 162.712 536.497C148.456 536.497 134.567 535.094 121.067 532.501C149.276 620.542 231.077 684.609 328.058 686.399C252.22 745.842 156.685 781.246 52.8542 781.246C34.991 781.246 17.3439 780.23 0 778.179C98.0648 841.035 214.496 877.725 339.647 877.725Z" fill="#1C1C1E"/>
</svg>
