<svg width="1080" height="1080" viewBox="0 0 1080 1080" fill="none" xmlns="http://www.w3.org/2000/svg">
<path d="M540.045 3.05176e-05C393.39 3.05176e-05 374.985 0.641291 317.385 3.26254C259.898 5.89504 220.658 14.9963 186.323 28.35C150.806 42.1425 120.679 60.5925 90.6638 90.6188C60.6262 120.634 42.1762 150.761 28.3387 186.266C14.9512 220.613 5.83875 259.864 3.25125 317.329C0.674995 374.929 0 393.345 0 540C0 686.655 0.65251 705.004 3.26251 762.604C5.90626 820.091 15.0075 859.331 28.35 893.666C42.1538 929.182 60.6037 959.31 90.63 989.325C120.634 1019.36 150.761 1037.86 186.255 1051.65C220.612 1065 259.864 1074.11 317.34 1076.74C374.94 1079.36 393.334 1080 539.978 1080C686.644 1080 704.993 1079.36 762.593 1076.74C820.08 1074.11 859.365 1065 893.723 1051.65C929.228 1037.86 959.31 1019.36 989.314 989.325C1019.35 959.31 1037.8 929.183 1051.64 893.678C1064.91 859.331 1074.03 820.08 1076.73 762.615C1079.31 705.015 1079.99 686.655 1079.99 540C1079.99 393.345 1079.31 374.94 1076.73 317.34C1074.03 259.853 1064.91 220.613 1051.64 186.278C1037.8 150.761 1019.35 120.634 989.314 90.6188C959.276 60.5813 929.239 42.1313 893.689 28.35C859.264 14.9963 820.001 5.89504 762.514 3.26254C704.914 0.641291 686.576 3.05176e-05 539.876 3.05176e-05H540.045ZM491.603 97.3125C505.98 97.29 522.022 97.3125 540.045 97.3125C684.225 97.3125 701.314 97.83 758.25 100.418C810.9 102.825 839.475 111.623 858.51 119.014C883.71 128.801 901.676 140.501 920.565 159.401C939.465 178.301 951.165 196.301 960.975 221.501C968.366 240.514 977.175 269.089 979.571 321.739C982.159 378.664 982.721 395.764 982.721 539.876C982.721 683.989 982.159 701.089 979.571 758.014C977.164 810.664 968.366 839.239 960.975 858.251C951.187 883.451 939.465 901.395 920.565 920.284C901.665 939.184 883.721 950.884 858.51 960.671C839.497 968.096 810.9 976.871 758.25 979.279C701.325 981.866 684.225 982.429 540.045 982.429C395.854 982.429 378.765 981.866 321.84 979.279C269.19 976.849 240.615 968.051 221.569 960.66C196.369 950.873 178.369 939.173 159.469 920.273C140.569 901.373 128.869 883.418 119.059 858.206C111.668 839.194 102.859 810.619 100.463 757.969C97.875 701.044 97.3575 683.944 97.3575 539.741C97.3575 395.539 97.875 378.529 100.463 321.604C102.87 268.954 111.668 240.379 119.059 221.344C128.846 196.144 140.569 178.144 159.469 159.244C178.369 140.344 196.369 128.644 221.569 118.834C240.604 111.409 269.19 102.634 321.84 100.215C371.655 97.965 390.96 97.29 491.603 97.1775V97.3125ZM828.292 186.975C792.517 186.975 763.492 215.966 763.492 251.753C763.492 287.528 792.517 316.553 828.292 316.553C864.067 316.553 893.093 287.528 893.093 251.753C893.093 215.978 864.067 186.953 828.292 186.953V186.975ZM540.045 262.688C386.899 262.688 262.733 386.854 262.733 540C262.733 693.146 386.899 817.256 540.045 817.256C693.191 817.256 817.313 693.146 817.313 540C817.313 386.854 693.18 262.688 540.034 262.688H540.045ZM540.045 360C639.45 360 720.045 440.584 720.045 540C720.045 639.405 639.45 720 540.045 720C440.629 720 360.045 639.405 360.045 540C360.045 440.584 440.629 360 540.045 360V360Z" fill="white"/>
</svg>
