<svg width="1080" height="1080" viewBox="0 0 1080 1080" fill="none" xmlns="http://www.w3.org/2000/svg">
<path fill-rule="evenodd" clip-rule="evenodd" d="M999.224 0H80.7755C35.9002 0 0 36 0 78V1002C0 1044 35.9002 1080 80.7755 1080H999.224C1044.1 1080 1080 1044 1080 1002V78C1080 36 1044.1 0 999.224 0ZM161.546 404.999H320.105V920.999H161.546V404.999ZM242.321 149.999C293.18 149.999 335.064 191.999 335.064 242.999C335.064 293.999 293.18 335.999 242.321 335.999C191.462 335.999 149.579 293.999 149.579 242.999C149.579 188.999 191.462 149.999 242.321 149.999ZM574.407 405.001H424.823V915.001H583.382V660.001C583.382 594.001 595.349 528.001 679.116 528.001C762.884 528.001 762.884 606.001 762.884 666.001V918.001H921.443V636.001C921.443 498.001 891.526 390.001 729.975 390.001C652.191 390.001 598.341 432.001 577.399 474.001H574.407V405.001Z" fill="white"/>
</svg>
